<svg version="1.2" xmlns="http://www.w3.org/2000/svg" viewBox="-319 125 999.9999999999999 1000.0000000000007" width="1000" height="1001">
	<style>
		tspan { white-space:pre } 
		.s0 { fill: #0eacc9 } 
		.s1 { fill: #29c4ca } 
		.s2 { fill: none;stroke: #0c4489;stroke-miterlimit:10;stroke-width: 80 } 
		.s3 { fill: none;stroke: #f7f7f7;stroke-miterlimit:10;stroke-width: 12;stroke-dasharray: 50,24 } 
		.s4 { fill: #0ca94b } 
		.s5 { fill: #0c4489 } 
		.s6 { fill: #e5e8ec } 
		.s7 { fill: #eaeef2 } 
		.t8 { font-size: 71px;fill: #e0e7ef;font-weight: 400;font-family: "AitoflowSans", "AitoflowSans" } 
		.t9 { font-size: 71px;fill: #0c4489;font-weight: 400;font-family: "AitoflowSans", "AitoflowSans" } 
		.s10 { fill: #098c3d } 
	</style>
	<g id="Capture dՎcran du 2026-04-20 15-06-16">
		<path id="Forme 4" fill-rule="evenodd" class="s0" d="m-255.45 706.32l879.21 9.77-19.54-258.88-263.76-239.34-236.9-17.1-278.42 156.31-90.36 173.4z"/>
		<path id="Forme 3" fill-rule="evenodd" class="s1" d="m581.01 680.36l-835.04 3.86 3.86 127.58 278.35 204.89 243.55 15.47 154.64-65.72 131.44-146.91z"/>
		<path id="Forme 1" fill-rule="evenodd" class="s2" d="m179.09 1051.98c-241.73 0-437.12-195.39-437.12-437.12 0-241.73 195.39-437.12 437.12-437.12 241.73 0 437.12 195.39 437.12 437.12 0 241.73-195.39 437.12-437.12 437.12z"/>
		<path id="Forme 1 copy" fill-rule="evenodd" class="s3" d="m179.09 1047.04c-241.73 0-437.12-195.39-437.12-437.12 0-241.72 195.39-437.11 437.12-437.11 241.73 0 437.12 195.39 437.12 437.11 0 241.73-195.39 437.12-437.12 437.12z"/>
		<path id="Forme 6" fill-rule="evenodd" class="s4" d="m337.6 781.89l40.79-79.95 16.32 24.48 53.85-37.53 35.89 55.48c0 0 25.95 44.52-6.52 55.47-32.48 10.95-31.01 9.79-31.01 9.79l-93-3.26h-13.06-79.95l-4.89-16.32z"/>
		<path id="Forme 6 copy 5" fill-rule="evenodd" class="s5" d="m-161.48 637.44c-7.94 4.52-17.8 20.87-20.36 24.19-2.56 3.32-25.75 2.58-28.37-1.62-2.62-4.2 1.16-20.4 1.16-20.4-6.24-1.71-10.65-7.3-10.28-13.68 0.36-6.37 5.37-11.43 11.77-12.41l1.91-33.37c-6.25-1.71-10.65-7.3-10.29-13.68 0.37-6.37 5.38-11.43 11.78-12.42 0 0-0.85-19.97 1.38-24.11 2.23-4.14 25.68-3.42 28.37 1.62 0.58 1.07 1.43 3 2.46 5.47 1.89 25.15 10.15 25.72 14.25 34.26 5.21 10.85 4.16 61.64-3.78 66.15zm-1.57-58.52l-12.55-16.73-1.17 32.61 13.76 1.77zm-1.18 26.73l-14.86-0.85-1.76 24.74 14.57-0.15z"/>
		<path id="Forme 6 copy 3" fill-rule="evenodd" class="s6" d="m326.36 920.76c0.19 9.13-8.81 25.97-10.35 29.88-1.54 3.9 10.97 23.44 15.92 23.54 4.95 0.1 16.92-11.45 16.92-11.45 4.67 4.49 11.73 5.41 17.02 1.83 5.29-3.57 7.07-10.47 4.64-16.47l27.68-18.72c4.67 4.49 11.73 5.41 17.02 1.83 5.29-3.58 7.06-10.47 4.63-16.48 0 0 17.6-9.5 20.01-13.53 2.41-4.03-10.21-23.81-15.92-23.54-1.21 0.06-3.3 0.31-5.96 0.69-22.57 11.25-27.29 4.46-36.72 5.3-11.99 1.08-55.07 27.99-54.89 37.12zm51.07-28.62l20.8 2.22-27.41 17.71-8.57-10.92zm-22.35 14.7l8.33 12.32-20.34 14.18-7.33-12.58z"/>
		<path id="Forme 6 copy" fill-rule="evenodd" class="s5" d="m323.36 926.76c0.19 9.13-8.81 25.97-10.35 29.88-1.54 3.9 10.97 23.44 15.92 23.54 4.95 0.1 16.92-11.45 16.92-11.45 4.67 4.49 11.73 5.41 17.02 1.83 5.29-3.57 7.07-10.47 4.64-16.47l27.68-18.72c4.67 4.49 11.73 5.41 17.02 1.83 5.29-3.58 7.06-10.47 4.63-16.48 0 0 17.6-9.5 20.01-13.53 2.41-4.03-10.21-23.81-15.92-23.54-1.21 0.06-3.3 0.31-5.96 0.69-22.57 11.25-27.29 4.46-36.72 5.3-11.99 1.08-55.07 27.99-54.89 37.12zm51.07-28.62l20.8 2.22-27.41 17.71-8.57-10.92zm-22.35 14.7l8.33 12.32-20.34 14.18-7.33-12.58z"/>
		<path id="Forme 6 copy 4" fill-rule="evenodd" class="s7" d="m-157.48 633.44c-7.94 4.52-17.8 20.87-20.36 24.19-2.56 3.32-25.75 2.58-28.37-1.62-2.62-4.2 1.16-20.4 1.16-20.4-6.24-1.71-10.65-7.3-10.28-13.68 0.36-6.37 5.37-11.43 11.77-12.41l1.91-33.37c-6.25-1.71-10.65-7.3-10.29-13.68 0.37-6.37 5.38-11.43 11.78-12.42 0 0-0.85-19.97 1.38-24.11 2.23-4.14 25.68-3.42 28.37 1.62 0.58 1.07 1.43 3 2.46 5.47 1.89 25.15 10.15 25.72 14.25 34.26 5.21 10.85 4.16 61.64-3.78 66.15zm-1.57-58.52l-12.55-16.73-1.17 32.61 13.76 1.77zm-1.18 26.73l-14.86-0.85-1.76 24.74 14.57-0.15z"/>
		<path id="Forme 6 copy 2" fill-rule="evenodd" class="s5" d="m-161.48 637.44c-7.94 4.52-17.8 20.87-20.36 24.19-2.56 3.32-25.75 2.58-28.37-1.62-2.62-4.2 1.16-20.4 1.16-20.4-6.24-1.71-10.65-7.3-10.28-13.68 0.36-6.37 5.37-11.43 11.77-12.41l1.91-33.37c-6.25-1.71-10.65-7.3-10.29-13.68 0.37-6.37 5.38-11.43 11.78-12.42 0 0-0.85-19.97 1.38-24.11 2.23-4.14 25.68-3.42 28.37 1.62 0.58 1.07 1.43 3 2.46 5.47 1.89 25.15 10.15 25.72 14.25 34.26 5.21 10.85 4.16 61.64-3.78 66.15zm-1.57-58.52l-12.55-16.73-1.17 32.61 13.76 1.77zm-1.18 26.73l-14.86-0.85-1.76 24.74 14.57-0.15z"/>
		<text id="Kartiki" style="transform: matrix(4.187,0,0,4.187,-124,383.531)">
			<tspan x="0" y="50.2" class="t8">K</tspan><tspan  y="50.2" class="t8">a</tspan><tspan  y="50.2" class="t8">r</tspan><tspan  y="50.2" class="t8">t</tspan><tspan  y="50.2" class="t8">i</tspan><tspan  y="50.2" class="t8">k</tspan><tspan  y="50.2" class="t8">i
</tspan>
		</text>
		<text id="Kartiki copy" style="transform: matrix(4.187,0,0,4.187,-130,379.531)">
			<tspan x="0" y="50.2" class="t9">K</tspan><tspan  y="50.2" class="t9">a</tspan><tspan  y="50.2" class="t9">r</tspan><tspan  y="50.2" class="t9">t</tspan><tspan  y="50.2" class="t9">i</tspan><tspan  y="50.2" class="t9">k</tspan><tspan  y="50.2" class="t9">i
</tspan>
		</text>
		<path id="Forme 2" fill-rule="evenodd" class="s4" d="m-159 764.01l73.52-98.97 53.73-25.45 65.04 22.62 19.8-62.21 62.21 45.25 53.73-25.46 53.73-14.13 19.79 110.28 28.28 39.59 45.25 45.25-113.12 16.96-180.98 2.83-130.08-5.65z"/>
		<path id="Forme 7" fill-rule="evenodd" class="s10" d="m-107.69 756.95l81.58-84.85-13.05 112.59z"/>
		<path id="Forme 8" fill-rule="evenodd" class="s10" d="m16.32 680.26l-29.37 106.06 81.58 16.31z"/>
		<path id="Forme 8 copy" fill-rule="evenodd" class="s10" d="m57.72 635.38l3.33 110 82.76-8.56z"/>
		<path id="Forme 9" fill-rule="evenodd" class="s10" d="m189.27 649.26l-58.74 138.69 112.59 1.63z"/>
		<path id="Forme 10" fill-rule="evenodd" class="s10" d="m378.55 734.1l-22.84 53.85 45.68 11.42 76.69-17.95-26.1-58.74-42.43 44.06z"/>
	</g>
</svg>